<svg width="1103" height="1080" viewBox="0 0 1103 1080" fill="none" xmlns="http://www.w3.org/2000/svg">
<path fill-rule="evenodd" clip-rule="evenodd" d="M199.508 187.469C220.548 183.039 251.618 165.049 268.648 155.169L323.978 124.769C336.348 123.949 326.988 121.389 335.278 128.599C314.458 140.359 295.748 157.359 274.888 173.629L90.6182 316.959C40.7282 355.979 20.8282 367.789 6.25819 449.739C-6.64181 522.279 1.62819 583.289 19.8682 649.959C52.7382 631.819 102.248 560.649 152.678 524.719C133.418 580.279 27.6982 669.729 33.3282 714.289C40.5082 771.189 120.858 898.289 154.158 912.289C179.858 895.919 186.388 853.159 211.218 835.029L180.268 940.459C214.848 975.359 358.648 1060.73 430.938 1065.63C428.398 1046.82 393.458 967.529 383.318 957.909C364.508 940.079 309.848 956.179 270.878 918.819C235.138 884.549 256.188 848.489 274.438 807.869C299.218 752.739 296.728 748.579 279.798 688.769C269.848 653.629 249.058 596.019 277.028 564.769C304.088 534.539 363.698 546.739 406.338 542.789C498.868 534.219 450.028 428.209 459.248 299.759C501.958 287.059 617.568 330.869 626.578 160.669C668.788 169.149 724.728 312.289 619.788 306.459C634.488 319.999 642.318 317.999 654.888 327.239C642.988 476.279 538.808 445.959 512.818 481.239C495.418 504.859 474.478 546.479 460.188 576.079C440.148 617.599 426.648 643.299 446.258 694.299C471.308 759.429 556.718 794.219 594.548 844.909C653.438 923.799 597.448 1003.66 584.748 1079.54C690.738 1072.41 763.018 977.409 735.468 855.439C712.308 752.889 623.798 649.519 612.488 584.859C599.598 511.139 680.108 505.759 732.188 531.199C779.458 554.289 780.778 606.539 790.208 669.219C809.288 796.089 808.778 786.639 864.298 890.369C871.668 904.129 890.398 941.599 899.298 953.439C912.918 947.619 922.258 934.559 935.778 925.509L904.438 823.689C915.818 836.149 922.228 844.599 933.168 858.379C944.698 872.899 951.788 886.119 964.808 895.839C1008.97 851.469 1045.23 789.869 1070.19 714.549C1077.93 691.199 1067.38 685.029 1057.02 668.939C1035.89 636.119 982.458 560.379 971.848 535.049C1000.02 548.409 1057.5 630.139 1088.58 637.629C1104.79 596.889 1105.08 508.879 1096.39 461.669C1065.86 295.749 937.338 268.759 810.848 162.009C801.728 154.309 802.498 156.279 795.828 146.609C831.208 150.549 857.038 175.619 886.378 186.829C888.238 150.829 875.788 99.5092 860.358 71.5392C841.588 37.5192 815.938 21.3992 763.468 32.0292C727.298 39.3592 678.608 60.3192 648.078 38.0092C631.118 25.6192 630.628 19.4992 605.658 10.8692C513.288 -21.0408 475.848 25.7192 443.708 43.6192C417.078 58.4492 353.568 36.2892 323.358 31.4392C231.828 16.7592 218.498 93.0992 199.528 187.499" fill="#EAEAEA"/>
</svg>
